<svg xmlns="http://www.w3.org/2000/svg" viewBox="0 0 459.02 160.37"><defs><style>.a{fill:#092e20;}</style></defs><title>django-logo</title><path class="a" d="M54.12,0h25.1V116.19c-12.88,2.45-22.33,3.43-32.6,3.43C16,119.62,0,105.76,0,79.19,0,53.6,17,37,43.2,37a40.06,40.06,0,0,1,10.92,1.31Zm0,58.49a24.89,24.89,0,0,0-8.48-1.3c-12.71,0-20,7.82-20,21.51,0,13.37,7,20.7,19.89,20.7a58.35,58.35,0,0,0,8.64-.65Z"/><path class="a" d="M119.16,38.77V97c0,20.05-1.47,29.66-5.87,38-4.08,8-9.46,13-20.54,18.58L69.44,142.44c11.08-5.22,16.46-9.78,19.88-16.79,3.59-7.17,4.73-15.49,4.73-37.33V38.77ZM94.05.13h25.11V25.89H94.05Z"/><path class="a" d="M134.32,44.47A75.57,75.57,0,0,1,167.57,37c12.88,0,21.35,3.43,25.1,10.11,2.12,3.75,2.77,8.64,2.77,19.07v51a276,276,0,0,1-35.86,2.77c-21,0-30.48-7.33-30.48-23.63,0-17.61,12.55-25.76,43.36-28.37V62.4c0-4.56-2.28-6.19-8.64-6.19-9.29,0-19.72,2.61-29.5,7.66V44.47ZM173.6,84.41c-16.62,1.63-22,4.24-22,10.76,0,4.89,3.09,7.17,9.94,7.17a69.7,69.7,0,0,0,12.06-1.14V84.41Z"/><path class="a" d="M207.67,42.68C222.5,38.77,234.73,37,247.12,37c12.88,0,22.17,2.94,27.71,8.64,5.22,5.38,6.85,11.25,6.85,23.8v49.23H256.57V70.39c0-9.62-3.26-13.2-12.22-13.2A37.77,37.77,0,0,0,232.77,59v59.66h-25.1Z"/><path class="a" d="M291.43,132.33a57.11,57.11,0,0,0,26.9,6.68c16.46,0,23.47-6.68,23.47-22.65v-.49c-4.89,2.44-9.78,3.42-16.3,3.42-22,0-36-14.51-36-37.49,0-28.53,20.7-44.66,57.37-44.66a158.8,158.8,0,0,1,32.77,3.58L371,58.83c-6.68-1.31-.53-.18-5.58-.67v2.61l.32,10.6.16,13.69c.17,3.42.17,6.85.33,10.27v6.85c0,21.51-1.79,31.62-7.17,39.93-7.82,12.23-21.35,18.26-40.59,18.26a71.9,71.9,0,0,1-27.06-4.89V132.33Zm49.88-75h-2.6a27.49,27.49,0,0,0-14.51,3.58c-6,3.43-9.13,9.62-9.13,18.42,0,12.56,6.2,19.73,17.28,19.73a31.36,31.36,0,0,0,9.45-1.63V88.81c0-2.93-.16-6.2-.16-9.62l-.16-11.57-.16-8.31v-2Z"/><path class="a" d="M418.59,36.65c25.1,0,40.43,15.81,40.43,41.4,0,26.25-16,42.71-41.41,42.71C392.51,120.76,377,105,377,79.52,377,53.11,393,36.65,418.59,36.65Zm-.49,63.89c9.62,0,15.32-8,15.32-21.84,0-13.69-5.54-21.84-15.16-21.84-9.94,0-15.65,8-15.65,21.84S408.32,100.54,418.1,100.54Z"/></svg>