<svg xmlns="http://www.w3.org/2000/svg" xmlns:xlink="http://www.w3.org/1999/xlink" width="500" zoomAndPan="magnify" viewBox="0 0 375 374.999991" height="500" preserveAspectRatio="xMidYMid meet" version="1.0"><defs><g/></defs><g fill="#ffffff" fill-opacity="1"><g transform="translate(42.222658, 231.848327)"><g><path d="M 66.8125 -83.34375 L 66.8125 -69.484375 L 42.75 -69.484375 L 42.75 0 L 26.34375 0 L 26.34375 -69.484375 L 2.28125 -69.484375 L 2.28125 -83.34375 Z M 66.8125 -83.34375 "/></g></g></g><g fill="#ffffff" fill-opacity="1"><g transform="translate(111.310315, 231.848327)"><g><path d="M 9.0625 0 L 9.0625 -62.875 L 24.40625 -62.875 L 24.40625 -53.53125 L 25.59375 -53.296875 C 27.113281 -56.796875 29.109375 -59.363281 31.578125 -61 C 34.046875 -62.632812 37.050781 -63.453125 40.59375 -63.453125 C 44.164062 -63.453125 46.878906 -62.84375 48.734375 -61.625 L 46.0625 -48 L 44.859375 -47.765625 C 43.835938 -48.191406 42.847656 -48.5 41.890625 -48.6875 C 40.941406 -48.875 39.785156 -48.96875 38.421875 -48.96875 C 34.015625 -48.96875 30.648438 -47.414062 28.328125 -44.3125 C 26.015625 -41.21875 24.859375 -36.253906 24.859375 -29.421875 L 24.859375 0 Z M 9.0625 0 "/></g></g></g><g fill="#ffffff" fill-opacity="1"><g transform="translate(160.617925, 231.848327)"><g><path d="M 24.515625 1.203125 C 20.484375 1.203125 16.984375 0.460938 14.015625 -1.015625 C 11.054688 -2.503906 8.773438 -4.679688 7.171875 -7.546875 C 5.578125 -10.421875 4.78125 -13.875 4.78125 -17.90625 C 4.78125 -21.625 5.578125 -24.742188 7.171875 -27.265625 C 8.773438 -29.796875 11.25 -31.867188 14.59375 -33.484375 C 17.9375 -35.109375 22.304688 -36.351562 27.703125 -37.21875 C 31.460938 -37.832031 34.320312 -38.5 36.28125 -39.21875 C 38.238281 -39.9375 39.554688 -40.753906 40.234375 -41.671875 C 40.921875 -42.585938 41.265625 -43.75 41.265625 -45.15625 C 41.265625 -47.164062 40.5625 -48.703125 39.15625 -49.765625 C 37.75 -50.828125 35.414062 -51.359375 32.15625 -51.359375 C 28.65625 -51.359375 25.328125 -50.578125 22.171875 -49.015625 C 19.015625 -47.460938 16.28125 -45.414062 13.96875 -42.875 L 12.828125 -42.875 L 6.21875 -52.84375 C 9.40625 -56.375 13.296875 -59.128906 17.890625 -61.109375 C 22.492188 -63.085938 27.515625 -64.078125 32.953125 -64.078125 C 41.273438 -64.078125 47.296875 -62.304688 51.015625 -58.765625 C 54.742188 -55.234375 56.609375 -50.21875 56.609375 -43.71875 L 56.609375 -16.421875 C 56.609375 -13.609375 57.84375 -12.203125 60.3125 -12.203125 C 61.257812 -12.203125 62.191406 -12.375 63.109375 -12.71875 L 63.90625 -12.484375 L 65.046875 -1.484375 C 64.171875 -0.910156 62.953125 -0.441406 61.390625 -0.078125 C 59.835938 0.273438 58.128906 0.453125 56.265625 0.453125 C 52.503906 0.453125 49.566406 -0.265625 47.453125 -1.703125 C 45.347656 -3.148438 43.835938 -5.414062 42.921875 -8.5 L 41.734375 -8.609375 C 38.648438 -2.066406 32.910156 1.203125 24.515625 1.203125 Z M 29.53125 -10.609375 C 33.175781 -10.609375 36.09375 -11.832031 38.28125 -14.28125 C 40.46875 -16.726562 41.5625 -20.140625 41.5625 -24.515625 L 41.5625 -30.890625 L 40.46875 -31.125 C 39.519531 -30.363281 38.273438 -29.726562 36.734375 -29.21875 C 35.203125 -28.707031 32.988281 -28.203125 30.09375 -27.703125 C 26.675781 -27.128906 24.21875 -26.148438 22.71875 -24.765625 C 21.21875 -23.378906 20.46875 -21.414062 20.46875 -18.875 C 20.46875 -16.175781 21.265625 -14.125 22.859375 -12.71875 C 24.453125 -11.3125 26.675781 -10.609375 29.53125 -10.609375 Z M 29.53125 -10.609375 "/></g></g></g><g fill="#ffffff" fill-opacity="1"><g transform="translate(226.912434, 231.848327)"><g><path d="M 9.0625 0 L 9.0625 -62.875 L 24.234375 -62.875 L 24.234375 -53.640625 L 25.421875 -53.359375 C 29.335938 -60.503906 35.6875 -64.078125 44.46875 -64.078125 C 51.726562 -64.078125 57.054688 -62.097656 60.453125 -58.140625 C 63.859375 -54.191406 65.5625 -48.4375 65.5625 -40.875 L 65.5625 0 L 49.765625 0 L 49.765625 -38.9375 C 49.765625 -43.113281 48.925781 -46.125 47.25 -47.96875 C 45.582031 -49.8125 42.90625 -50.734375 39.21875 -50.734375 C 34.695312 -50.734375 31.171875 -49.269531 28.640625 -46.34375 C 26.117188 -43.414062 24.859375 -38.816406 24.859375 -32.546875 L 24.859375 0 Z M 9.0625 0 "/></g></g></g><g fill="#38b6ff" fill-opacity="1"><g transform="translate(300.562485, 231.848327)"><g><path d="M 16.078125 0.515625 C 14.054688 0.515625 12.273438 0.109375 10.734375 -0.703125 C 9.203125 -1.523438 8.023438 -2.65625 7.203125 -4.09375 C 6.390625 -5.539062 5.984375 -7.175781 5.984375 -9 C 5.984375 -10.832031 6.390625 -12.46875 7.203125 -13.90625 C 8.023438 -15.351562 9.203125 -16.492188 10.734375 -17.328125 C 12.273438 -18.160156 14.054688 -18.578125 16.078125 -18.578125 C 18.128906 -18.578125 19.921875 -18.171875 21.453125 -17.359375 C 22.992188 -16.546875 24.171875 -15.414062 24.984375 -13.96875 C 25.804688 -12.519531 26.21875 -10.882812 26.21875 -9.0625 C 26.21875 -6.289062 25.296875 -4 23.453125 -2.1875 C 21.609375 -0.382812 19.148438 0.515625 16.078125 0.515625 Z M 16.078125 0.515625 "/></g></g></g><g fill="#ff66c4" fill-opacity="1"><g transform="translate(165.598722, 204.385486)"><g><path d="M 17.375 -52 L 2.28125 -52 L 18.953125 -85.8125 L 36.15625 -85.8125 L 52.828125 -52 L 37.6875 -52 L 28.171875 -71.671875 L 26.9375 -71.671875 Z M 17.375 -52 "/></g></g></g></svg>