<?xml version="1.0" encoding="utf-8"?>
<!-- Generator: Adobe Illustrator 26.0.3, SVG Export Plug-In . SVG Version: 6.00 Build 0)  -->
<svg version="1.0" id="katman_1" xmlns="http://www.w3.org/2000/svg" xmlns:xlink="http://www.w3.org/1999/xlink" x="0px" y="0px"
	 viewBox="0 0 600 450" style="enable-background:new 0 0 600 450;" xml:space="preserve">
<style type="text/css">
	.st0{clip-path:url(#SVGID_00000041264058129116963610000017180329316792697748_);fill:#3CB393;}
	.st1{clip-path:url(#SVGID_00000021092136606298875360000016446436198997927060_);fill:#3CB393;}
	.st2{fill:#3CB393;}
	.st3{clip-path:url(#SVGID_00000021808713524652431190000010307110225880920962_);fill:#3CB393;}
	.st4{clip-path:url(#SVGID_00000167390422965174377210000017425835599573673347_);fill:#3CB393;}
	.st5{fill-rule:evenodd;clip-rule:evenodd;fill:#253B49;}
	
		.st6{clip-path:url(#SVGID_00000112624082962794013650000004548203705215085229_);fill-rule:evenodd;clip-rule:evenodd;fill:#253B49;}
	
		.st7{clip-path:url(#SVGID_00000176723828355950127490000003379173200566060214_);fill-rule:evenodd;clip-rule:evenodd;fill:#253B49;}
	
		.st8{clip-path:url(#SVGID_00000008860663749679623160000000860474656812240020_);fill-rule:evenodd;clip-rule:evenodd;fill:#253B49;}
	
		.st9{clip-path:url(#SVGID_00000052066264844707650480000007211338810135665307_);fill-rule:evenodd;clip-rule:evenodd;fill:#253B49;}
</style>
<g>
	<g>
		<g>
			<defs>
				<rect id="SVGID_1_" x="55" y="173.3" width="488.2" height="103.5"/>
			</defs>
			<clipPath id="SVGID_00000168107103915593623390000015862733186407508395_">
				<use xlink:href="#SVGID_1_"  style="overflow:visible;"/>
			</clipPath>
			<path style="clip-path:url(#SVGID_00000168107103915593623390000015862733186407508395_);fill:#3CB393;" d="M494,270.4
				c11.7,7.1,21.9-6.4,20.4-17.3c-1-7.5-1.7-19.3-3.8-23.8c-2.1-4.6-8.7-5.3-12.1-6.5c-3.3-1.2-9-4.8-13.5-2.5s-12.4,11-17.9,16.2
				c-8,7.6-6.5,24.1,5,26.2C483.7,264.8,486.6,265.9,494,270.4L494,270.4z"/>
		</g>
		<g>
			<defs>
				<rect id="SVGID_00000109721362903046852900000003845988711479069326_" x="55" y="173.3" width="488.2" height="103.5"/>
			</defs>
			<clipPath id="SVGID_00000157308096732096201590000007343386703812875192_">
				<use xlink:href="#SVGID_00000109721362903046852900000003845988711479069326_"  style="overflow:visible;"/>
			</clipPath>
			<path style="clip-path:url(#SVGID_00000157308096732096201590000007343386703812875192_);fill:#3CB393;" d="M488.9,212.2
				c-2.3-0.8-4.2-3.5-4.8-7c-0.7-3.6-1.6-16.4,15.8-31.6c0.4-0.3,0.8-0.4,1.3-0.2c0.1,0,0.1,0,0.2,0.1c0.5,0.3,0.7,0.8,0.7,1.3
				c-0.5,3.3-0.6,7.3-0.7,11.5c-0.3,12.1-0.6,25.8-10.7,26.2C490,212.5,489.4,212.4,488.9,212.2L488.9,212.2L488.9,212.2z"/>
		</g>
	</g>
	<path class="st2" d="M461.8,227.8c-2.5-0.9-4.3-3.6-5.1-7.6c-1.6-8.9,2.3-22.6,13-31.5c0.4-0.3,0.8-0.4,1.2-0.2
		c0.1,0,0.2,0.1,0.3,0.2c0.5,0.4,0.6,1,0.4,1.5c-3.4,7.5-1.4,14.1,0.5,19.9c2.2,7,4.3,13.5-6,17.6
		C464.7,228.2,463.2,228.3,461.8,227.8L461.8,227.8L461.8,227.8z"/>
	<g>
		<g>
			<defs>
				<rect id="SVGID_00000173882538468430759270000007950338682252696710_" x="55" y="173.3" width="488.2" height="103.5"/>
			</defs>
			<clipPath id="SVGID_00000044145968721798376830000008047217637846217605_">
				<use xlink:href="#SVGID_00000173882538468430759270000007950338682252696710_"  style="overflow:visible;"/>
			</clipPath>
			<path style="clip-path:url(#SVGID_00000044145968721798376830000008047217637846217605_);fill:#3CB393;" d="M512.8,220.7
				c-0.6-0.2-1.1-0.5-1.5-0.9c-7.6-6.7,0.7-17.6,8.1-27.2c2.6-3.4,5-6.5,6.7-9.4c0.3-0.5,0.8-0.7,1.3-0.6c0.1,0,0.1,0,0.2,0.1
				c0.4,0.2,0.8,0.5,0.8,1c4,22.8-4.7,32.2-7.5,34.5C518.2,220.6,515.2,221.5,512.8,220.7L512.8,220.7z"/>
		</g>
		<g>
			<defs>
				<rect id="SVGID_00000031910377071489232080000014631538333503144630_" x="55" y="173.3" width="488.2" height="103.5"/>
			</defs>
			<clipPath id="SVGID_00000008113274183460691500000010287717766685038483_">
				<use xlink:href="#SVGID_00000031910377071489232080000014631538333503144630_"  style="overflow:visible;"/>
			</clipPath>
			<path style="clip-path:url(#SVGID_00000008113274183460691500000010287717766685038483_);fill:#3CB393;" d="M524.1,249.7
				c-1.4-0.5-2.5-1.5-3.3-2.9c-5.4-9.6,0.3-13.4,6.4-17.4c5.1-3.4,10.8-7.2,12.8-15.2c0.1-0.6,0.7-1,1.3-1c0.1,0,0.3,0,0.4,0.1
				c0.4,0.1,0.7,0.5,0.8,1c2.7,13.6-2.8,26.8-9.7,32.7C529.8,249.7,526.7,250.6,524.1,249.7L524.1,249.7z"/>
		</g>
	</g>
	<path class="st5" d="M156.4,227.1c0.8,1.9,1.1,3.9,1.4,5.7c0.1,0.6,0.1,2,0.2,2.9c0,0.9,0,2.4,0,2.9s-0.1,2.4-0.3,3.5
		c-1.4,5.8-3,8.8-9.1,9.8c-2,0.3-4.4-0.3-5.7-0.8c-3.7-1.5-5.3-4.9-6.1-9.2c-0.1-0.7-0.2-1.4-0.3-2.1c0-0.4-0.1-0.9-0.1-1.3
		c0-1.3-0.1-2.9,0-4.2c0-0.6,0.1-1,0.1-1.6c0.2-1.1,0.4-2.4,0.7-3.4c1-3.3,2.8-5.7,5.9-6.9c0.8-0.3,2.4-0.7,3.7-0.7
		C151.7,221.8,154.9,223.5,156.4,227.1L156.4,227.1z M147.2,214.6c9.8-0.2,15.8,3.9,18.7,10.8c1.8,4.4,2.5,13,1,18.4
		c-2.2,8-5.8,12.4-14,14.5c-1.8,0.4-4.1,0.7-6.3,0.7c-0.8,0-1.6-0.1-2.4-0.1c-1.7-0.3-3.4-0.4-4.9-0.9c-4.2-1.3-7.4-3.5-9.5-6.8
		c-1.4-2.2-2.3-4.7-2.9-7.7c-0.2-1.1-0.3-1.8-0.4-2.9c-0.1-1.4-0.2-3.4-0.2-4.9c0-1.1,0.1-2.2,0.3-3.2c0.8-4.2,1.7-7.3,3.8-10.3
		c2.7-3.8,6.3-5.7,11.4-7.1c1.1-0.3,2.4-0.4,3.5-0.5C145.9,214.7,146.7,214.7,147.2,214.6L147.2,214.6z"/>
	<path class="st5" d="M297.9,227.1c0.8,1.9,1.1,3.9,1.4,5.7c0.1,0.6,0.1,2,0.2,2.9c0,0.9,0,2.4,0,2.9s-0.1,2.4-0.3,3.5
		c-1.4,5.8-3,8.8-9.1,9.8c-2,0.3-4.4-0.3-5.7-0.8c-3.6-1.4-5.2-4.8-6.1-8.9c-0.1-0.7-0.2-1.4-0.3-2.1c0-0.4-0.1-1-0.1-1.5
		c0-1.3-0.1-2.9,0-4.2c0-0.6,0.1-1,0.1-1.6c0.2-1.1,0.4-2.4,0.7-3.4c1-3.3,2.8-5.7,5.9-6.9c0.8-0.3,2.4-0.7,3.7-0.7
		C293.2,221.8,296.4,223.5,297.9,227.1L297.9,227.1z M288.7,214.6c9.8-0.2,15.8,3.9,18.7,10.8c1.8,4.4,2.5,13,1,18.4
		c-2.2,8-5.8,12.4-14,14.5c-1.8,0.4-4.1,0.7-6.3,0.7c-0.8,0-1.6-0.1-2.4-0.1c-1.7-0.3-3.4-0.4-4.9-0.9c-4.2-1.3-7.4-3.5-9.5-6.8
		c-1.4-2.2-2.3-4.7-2.9-7.7c-0.2-1.1-0.3-1.8-0.4-2.9c-0.1-1.4-0.2-3.4-0.2-4.9c0-1.1,0.1-2.2,0.3-3.2c0.8-4.2,1.7-7.3,3.8-10.3
		c2.7-3.8,6.3-5.7,11.4-7.1c1.2-0.3,2.7-0.4,3.8-0.5C287.7,214.7,288.2,214.7,288.7,214.6L288.7,214.6z"/>
	<path class="st5" d="M344.7,227.1c0.8,1.9,1.1,3.9,1.4,5.7c0.1,0.6,0.1,2,0.2,2.9c0,0.9,0,2.4,0,2.9s-0.1,2.4-0.3,3.5
		c-1.4,5.8-3,8.8-9.1,9.8c-2,0.3-4.4-0.3-5.7-0.8c-3.6-1.4-5.2-4.8-6.1-8.9c-0.1-0.7-0.2-1.4-0.3-2.1c0-0.4-0.1-1-0.1-1.5
		c0-1.3-0.1-2.9,0-4.2c0-0.6,0.1-1,0.1-1.6c0.2-1.1,0.4-2.4,0.7-3.4c1-3.3,2.8-5.7,5.9-6.9c0.8-0.3,2.2-0.7,3.7-0.7
		C340,221.8,343.2,223.5,344.7,227.1L344.7,227.1z M335.6,214.6c9.8-0.2,15.8,3.9,18.7,10.8c1.8,4.4,2.5,13,1,18.4
		c-2.2,8-5.8,12.4-14,14.5c-1.8,0.4-4.1,0.7-6.3,0.7c-0.8,0-1.6-0.1-2.4-0.1c-1.7-0.3-3.4-0.4-4.9-0.9c-4.2-1.3-7.4-3.5-9.5-6.8
		c-1.4-2.2-2.3-4.7-2.9-7.7c-0.2-1.1-0.3-1.8-0.4-2.9c-0.1-1.4-0.2-3.4-0.2-4.9c0-1.1,0.1-2.2,0.3-3.2c0.8-4.2,1.7-7.3,3.8-10.3
		c2.7-3.8,6.3-5.7,11.4-7.1c1.2-0.3,2.7-0.4,3.8-0.5C334.6,214.7,335.1,214.7,335.6,214.6L335.6,214.6z"/>
	<path class="st5" d="M377.7,214.8c4.3,0,8,0.4,11.4,1.2c0.9,0.2,3.3,0.6,3.6,1.2c0.2,0.3,0.1,1.2,0.1,1.7c0,1.4,0,2.7,0,4
		c0,1.1,0.2,4.5-0.2,5.2c-0.4,0.3-1.7,0.1-2.6,0.1c-0.6,0-1.6-0.1-2.3-0.2c-0.5,0-1.2,0-1.6-0.3s-0.4-0.9-0.5-1.5
		c-0.3-1.1-0.4-3.2-0.9-3.9c-0.6-0.8-2.7-1-4.1-1.2c-4.1-0.5-8.6,0.3-9.9,3.1c-0.3,0.7-0.5,1.9-0.3,2.8c0.6,2.9,2.8,3.7,5.4,4.6
		c1.9,0.7,4,1,6,1.5c6,1.7,10.6,3.4,12,10.2c0.6,2.8-0.1,5.8-0.9,7.8c-1.7,3.9-5.2,6-9.6,7.2c-6.3,1.6-16.7,0.3-21.5-1.8
		c-0.9-0.4-0.8-1.3-0.8-2.6c0-2.1,0-4.1,0-6.2c0-1-0.1-2.8,0.6-2.8c1.3,0.1,2.7,0.2,4,0.3c0.7,0,1.7,0,2,0.2
		c0.4,0.2,0.4,1.1,0.5,1.6c0.2,1.1,0.4,3.6,1.1,4.2c1.1,0.8,3.4,1.1,5.1,1.3c3.6,0.4,8.3,0,9.8-2c0.7-0.9,1.1-1.9,1.2-3.4
		c0-0.4-0.1-0.8-0.1-1.1c-0.4-1.8-1.5-2.8-3-3.4c-5.2-2.3-12.4-2.4-16.6-5.6c-1.7-1.3-2.9-3.1-3.5-5.5c-0.2-0.7-0.3-2-0.3-2.8
		c0-0.7,0-1.8,0.1-2.5c0.2-1.1,0.4-2,0.7-2.9c1.1-2.9,3-4.8,5.6-6.3c1.7-1,3.8-1.5,6-2C375,215,376.4,214.9,377.7,214.8L377.7,214.8
		z"/>
	<g>
		<g>
			<defs>
				<rect id="SVGID_00000038393105776885881410000001022563472233512617_" x="55" y="173.3" width="488.2" height="103.5"/>
			</defs>
			<clipPath id="SVGID_00000160908096899404079300000014393405843669285283_">
				<use xlink:href="#SVGID_00000038393105776885881410000001022563472233512617_"  style="overflow:visible;"/>
			</clipPath>
			
				<path style="clip-path:url(#SVGID_00000160908096899404079300000014393405843669285283_);fill-rule:evenodd;clip-rule:evenodd;fill:#253B49;" d="
				M420.4,222c3.4,0.7,5.2,2.6,6.1,5.7c0.3,1,0.5,2.2,0.6,3.4c0,0.6,0,1.1-0.2,1.3c-0.4,0.3-2.8,0.1-3.6,0.1c-3.2,0-8.4,0-11.5,0
				c-0.8,0-1.6,0.2-1.8-0.3c-0.3-0.7,0.4-3.3,0.6-3.8c0.8-2.6,2.3-4.7,4.7-5.8c0.6-0.2,1.2-0.4,1.8-0.6c0.3-0.1,0.8-0.2,1.2-0.2
				C418.7,221.8,419.7,221.9,420.4,222L420.4,222z M417.9,214.8c8.6-0.2,14,3,16.6,8.8c0.7,1.5,1,3,1.4,4.8c0.5,2.3,0.6,5.2,0.5,7.9
				c0,0.9,0.1,2.7-0.4,3c-0.3,0.2-1.1,0.1-1.6,0.1c-1.3,0-2.6,0-3.8,0c-4.9,0-9.8,0-14.7,0c-1.5,0-3.1,0-4.6,0
				c-0.7,0-1.4-0.1-1.6,0.4c-0.1,0.3,0,0.8,0.1,1.2c0.3,1.4,0.4,2.7,0.8,3.9c1.1,3.2,3,5.2,6.3,6.2c0.7,0.2,1.6,0.3,2.5,0.5
				s2.1,0.2,3.1,0.1c0.9-0.1,1.7-0.2,2.7-0.4c2-0.4,3.8-0.9,5.5-1.6c0.4-0.2,1.8-0.9,2.2-0.7c0.4,0.1,0.6,0.9,0.7,1.3
				c0.5,1.2,1,2.4,1.5,3.5c0.1,0.4,0.6,1.1,0.3,1.6c-0.3,0.5-1.8,0.9-2.4,1.2c-2.5,1.1-5.2,1.8-8.2,2.3c-1.1,0.2-2.6,0.3-3.9,0.3
				c-9.7,0.2-16.2-3.3-19.1-9.9c-0.7-1.6-1.1-3.3-1.6-5.2c-0.2-1-0.3-2.1-0.5-3.2c0-0.3-0.1-0.9-0.1-1.3c-0.1-1.5-0.1-3.2-0.1-4.6
				c0-0.6,0.1-1.2,0.2-2c0.3-2.4,0.7-4.5,1.5-6.5c2.1-5.3,5.7-9.1,11.3-10.9c1-0.3,2.1-0.5,3.3-0.7
				C416.4,214.9,417.4,214.8,417.9,214.8L417.9,214.8z"/>
		</g>
		<g>
			<defs>
				<rect id="SVGID_00000152952118092032750630000004354974830610092961_" x="55" y="173.3" width="488.2" height="103.5"/>
			</defs>
			<clipPath id="SVGID_00000041285300579374667920000007182389648245742768_">
				<use xlink:href="#SVGID_00000152952118092032750630000004354974830610092961_"  style="overflow:visible;"/>
			</clipPath>
			
				<path style="clip-path:url(#SVGID_00000041285300579374667920000007182389648245742768_);fill-rule:evenodd;clip-rule:evenodd;fill:#253B49;" d="
				M237.9,259.5c1,0.2,1.9,0,2.7,0.2c0.5,0,0.9,0,1.4,0c1.5,0.1,3,0.2,4.6,0.3c0.4,0,0.8,0,1.3,0c2.6,0.4,5.1,0.2,6.8,1.5
				c0.9,0.7,1.2,2.6,0.8,4c-0.4,1.2-1.3,2-2.4,2.6c-4.1,2.5-16.1,2.7-19.8-0.3c-2.9-2.3-0.1-7.5,2.1-8.6
				C236.3,259.4,237.1,259.4,237.9,259.5L237.9,259.5z M251.6,225.1c0.5,0.8,0.8,1.7,1,2.6c0.3,0.9,0.3,2.3,0.2,3.4
				c-0.8,4.5-3,6.4-7.2,7.3c-0.8,0.2-2,0.3-2.9,0.2c-0.3,0-0.8,0-1.1-0.1c-1-0.2-1.9-0.3-2.7-0.6c-3.2-1.3-5.5-4.7-4.5-9.6
				c0.1-0.7,0.4-1.5,0.7-2.1c0.9-2,2.7-3.4,4.9-4.1c0.6-0.2,1.2-0.3,1.7-0.4c0.3,0,0.9-0.1,1.3-0.1
				C247.3,221.4,250,222.5,251.6,225.1L251.6,225.1z M242.9,214.7c2.3-0.1,4.3,0,6.7,0.7c0.5,0.1,1,0.1,1.5,0.2h7.5c1.7,0,3.3,0,5,0
				c0.6,0,1.6-0.1,2,0.1c0.5,0.3,0.3,3.5,0.3,4.4c0,0.4,0.1,1-0.1,1.3c-0.3,0.4-1.5,0.3-2.1,0.3c-0.9,0-3.6,0-5,0
				c-0.3,0-0.5,0.4-0.3,0.6c0.4,0.5,0.8,1.1,0.9,1.4c0.7,1.2,1.3,2.5,1.7,4.1c0.8,3.9-0.3,8-1.8,10.4c-0.3,0.5-0.7,1-1.1,1.4
				c-0.5,0.6-1.3,1.4-1.9,1.9c-2.5,1.9-4.9,2.8-8.5,3.6c-1.1,0.2-2.2,0.3-3.3,0.3c-0.4,0-0.9,0-1.3,0c-1.5-0.1-2.6-0.1-3.9-0.3
				c-0.5-0.1-1.5-0.5-2-0.3c-0.4,0.2-0.7,0.8-0.9,1.2c-0.7,1.1-1.3,2.1-2,3.2c-0.2,0.3-0.8,1-0.6,1.5s2.4,0.3,3.1,0.4
				c3,0.1,6,0.3,8.9,0.4c1.8,0.2,4.8,0.4,6.6,0.6c4.4,0.6,8.6,1.2,10.7,4c1,1.3,1.5,2.9,1.9,4.9c0,0.4,0,0.9,0,1.3
				c0.2,1.3-0.1,3-0.4,4.1c-1.7,5.4-6.1,7.9-11.7,9.3c-1.3,0.3-2.6,0.4-4.1,0.7c-1,0.1-1.9,0.2-2.9,0.3h-1.9c-0.5,0.1-1.3,0.1-1.8,0
				c-0.8-0.1-1.9,0-2.5-0.1c-1.2-0.2-2.3,0-3.4-0.2c-4.4-0.8-8.6-1.5-10.9-4.4c-0.7-0.9-1.2-1.8-1.6-3c-0.9-3.1,0.3-6.2,1.6-8
				c0.6-0.8,1.3-1.6,2-2.3c0.3-0.3,0.8-0.5,0.8-1.1c-0.3-0.5-0.9-0.7-1.3-1c-0.8-0.6-1.5-1.6-1.9-2.6c-1.2-4,2.1-6.9,3.9-8.7
				c0.5-0.5,1.7-1.5,2-2.2c0.1-0.1,0.2-0.5-0.1-0.7c-0.5-0.4-1.4-1-1.8-1.3c-1.3-1-2.4-2.9-3-4.5c-0.4-1.1-0.6-2.2-0.9-3.4
				c-0.4-2-0.2-4.6,0.3-6.4c1.2-5.1,4.3-8.5,8.8-10.3c1.6-0.6,3.3-1,5.2-1.4c0.6-0.1,1.4-0.2,2-0.2
				C241.8,214.8,242.5,214.7,242.9,214.7L242.9,214.7z"/>
		</g>
		<g>
			<defs>
				<rect id="SVGID_00000002353422136487988150000001485579715945214638_" x="55" y="173.3" width="488.2" height="103.5"/>
			</defs>
			<clipPath id="SVGID_00000111151125248595234160000002644477371407333273_">
				<use xlink:href="#SVGID_00000002353422136487988150000001485579715945214638_"  style="overflow:visible;"/>
			</clipPath>
			
				<path style="clip-path:url(#SVGID_00000111151125248595234160000002644477371407333273_);fill-rule:evenodd;clip-rule:evenodd;fill:#253B49;" d="
				M200.6,214.6c8.1-0.2,11.4,3.9,12.6,10.6c0.7,3.7,0.2,9,0.3,13c0,2.4,0,4.8,0,7.3c0,1.6,0,3.4-0.1,5c-0.1,2.2,2.5,1.8,4.1,2.1
				c0.7,0.1,1.5,0,1.7,0.5c0.1,0.3,0.1,0.8,0.1,1.1c0,0.9,0.2,3.5-0.3,3.8c-0.6,0.3-1.8,0.1-2.6,0.1c-2,0-3.9,0-5.9,0
				c-2.8,0-5.6,0-8.5,0c-0.8,0-2.8,0.2-3.2-0.1c-0.3-0.2-0.3-1-0.3-1.5c0-0.8-0.1-2.6,0.1-3.2c0.2-0.5,0.8-0.4,1.4-0.5
				c1.2-0.2,3.4-0.1,3.9-1.1c0.2-0.6,0.1-1.7,0.1-2.5c0-1.7,0-3.5,0-5.2c0-3.4,0-6.9,0-10.3c0-5.1,0.1-9.2-3.6-10.6
				c-3.3-1.3-8.7,1-10.8,2.2c-0.7,0.4-2.3,1.2-2.7,1.7c-0.1,0.5,0,1.7,0,2.5c0,1.7,0,3.4,0,5.1c0,5.5,0,11.1,0,16.6
				c0.1,0.3,0.2,0.7,0.4,0.8c0.7,0.5,2.9,0.5,4,0.7c0.4,0.1,0.7,0,0.9,0.1c0.6,0.3,0.4,2.1,0.4,3.1c0,0.5,0.1,1.4-0.1,1.9
				c-0.2,0.6-3.6,0.4-4.6,0.4c-3.6,0-7.2,0-10.8,0c-1.1,0-2.1,0-3.2,0c-0.4,0-1,0.1-1.3-0.1c-0.6-0.2-0.4-2.9-0.4-3.9
				c0-0.4,0-1,0.1-1.2c0.2-0.3,0.8-0.3,1.2-0.3c1-0.2,2.8-0.1,3.5-0.6c0.6-0.4,0.5-1.5,0.5-2.5c0-2.1,0-4.2,0-6.3
				c0-4.6,0-9.2,0-13.8c0-1.3,0-2.6,0-3.9c0-0.8,0.1-1.6-0.2-2.2c-0.4-1-2.8-1.5-3.8-1.9c-0.5-0.2-1.4-0.3-1.5-0.9
				c0-0.4,0.1-0.7,0.1-1.1c0.2-0.9,0.3-3.6,1-3.8c0.5-0.2,1.5-0.1,2.1-0.1c1.5,0,3,0,4.6,0c1,0,4.4-0.2,4.9,0.1
				c0.6,0.4,0.5,3.4,1,4.2c0.6,0.2,2.9-1.5,3.5-1.8c2.2-1.4,4.8-2.2,7.7-2.9c0.9-0.1,1.8-0.2,2.7-0.4
				C200,214.7,200.3,214.7,200.6,214.6L200.6,214.6z"/>
		</g>
		<g>
			<defs>
				<rect id="SVGID_00000160170277951849321810000002124694372730577076_" x="55" y="173.3" width="488.2" height="103.5"/>
			</defs>
			<clipPath id="SVGID_00000102529601567165987830000004924811186628608135_">
				<use xlink:href="#SVGID_00000160170277951849321810000002124694372730577076_"  style="overflow:visible;"/>
			</clipPath>
			
				<path style="clip-path:url(#SVGID_00000102529601567165987830000004924811186628608135_);fill-rule:evenodd;clip-rule:evenodd;fill:#253B49;" d="
				M82.5,214.6c3.4,0,5.9,0.8,7.8,2.3c0.6,0.5,1.1,1,1.6,1.7c0.2,0.3,0.5,0.7,0.7,0.9c0.3-0.2,0.8-0.5,1.1-0.7
				c0.7-0.4,1.5-0.8,2.2-1.2c2.4-1.3,5-2.2,8.2-2.7c1.1-0.2,2.6-0.3,3.8-0.2c1.1,0.1,1.7,0.1,2.7,0.3c2.9,0.7,5,2.1,6.4,4.3
				c2,3.2,2.1,7.5,2.1,12.7c0,4.6,0,9.3,0,14c0,1.5-0.4,5.6,0.6,6c0.9,0.4,2.7,0.4,3.8,0.6c0.6,0.1,1.1,0,1.3,0.4
				c0.2,0.4,0.1,3,0.1,3.7c0,0.5,0,1-0.2,1.2c-0.4,0.3-3.4,0.1-4.3,0.1c-3.8,0-7.6,0-11.4,0c-0.9,0-4.2,0.2-4.6-0.1
				c-0.3-0.2-0.4-3.6-0.3-4.4c0.3-1.7,4.8-0.4,5.5-2.1c0.3-0.7,0.1-1.9,0.1-2.7c0-2,0-3.9,0-5.9c0-3.4,0-6.9,0-10.3
				c0-3.4-0.1-6.5-1.6-8.4c-0.8-1-1.7-1.1-3.2-1.4c-0.7-0.1-1.3,0-1.7,0c-0.7,0.1-1.3,0.2-1.9,0.3c-1.7,0.4-3,0.9-4.5,1.6
				c-0.5,0.2-1.7,0.8-2.2,1.4c0.1,0.5,0.1,1,0.1,1.6c0,0.9,0,1.6,0.1,2.5c0,3.4,0,6.9,0,10.3c0,2.6,0,5.2,0,7.8c0,1-0.2,2.6,0.2,3.3
				c0.6,1.1,4.2,0.6,4.8,1.3c0.2,0.3,0.2,0.8,0.2,1.2c0,0.9,0.2,3.6-0.4,3.9c-0.4,0-0.9,0-1.3,0.1c-1.1,0-2.2,0-3.3,0
				c-3.5,0-7,0-10.5,0c-1,0-4.4,0.2-4.6-0.4c-0.2-0.4-0.2-1.2-0.2-1.7c0-0.9-0.1-2.8,0.5-3.1c0.3-0.2,0.6-0.1,1-0.2
				c1.6-0.3,4,0,4.3-1.6c0-2.8,0-5.6,0-8.5c0-4.4,0-8.9,0-13.3c0-0.4-0.1-0.8-0.1-1.1c-0.3-1.7-0.5-3-1.4-4.1
				c-0.8-0.9-2.3-1.5-3.6-1.5c-0.5,0.1-1,0.1-1.5,0.2c-2.8,0.5-4.8,1.3-6.7,2.6c-0.6,0.4-1.5,0.9-2,1.5c0,0.3,0,1,0,1.4c0,1,0,2,0,3
				c0,3.2,0,6.4,0,9.6c0,2.5,0,4.9,0,7.4c0,0.9-0.2,2.6,0.1,3.2c0.4,1,2.6,0.9,3.7,1.1c0.7,0.1,1.4,0,1.6,0.7c0,1.1,0,2.2,0,3.3
				c0,0.4,0.1,1-0.1,1.2c-0.3,0.4-3.6,0.3-4.5,0.3c-3.6,0-7.2,0-10.8,0c-0.9,0-3.8,0.2-4.3-0.1c-0.5-0.3-0.3-2.8-0.3-3.8
				c0-0.4,0-0.9,0.1-1.2c0.3-0.4,0.9-0.3,1.4-0.4c1.1-0.2,3.2-0.2,3.6-1.1c0.2-0.5,0.1-1.5,0.1-2.2c0-1.6,0-3.1,0-4.7
				c0-5.4,0-10.9,0-16.3c0-1.4,0.3-4.6-0.3-5.4c-0.5-0.7-2.7-1.2-3.6-1.6c-0.4-0.1-1.2-0.2-1.4-0.6c-0.3-0.5,0.1-2.3,0.2-3
				c0.1-0.6,0.1-1.4,0.4-1.9s1.6-0.4,2.4-0.4c2.4,0,4.7,0,7.1,0c0.8,0,2.3-0.2,2.7,0.3c0.2,0.3,0.1,0.6,0.2,1
				c0.2,0.9,0.1,2.7,0.7,3.2c0.5-0.3,1.4-0.8,1.9-1.1c1.3-0.9,2.7-1.8,4.2-2.4c1.4-0.6,3-1.1,4.7-1.5c0.7-0.1,1.4-0.2,2.1-0.3
				C81.8,214.7,82.2,214.6,82.5,214.6L82.5,214.6z"/>
		</g>
	</g>
</g>
</svg>
